<?xml version="1.0" standalone="no"?><!-- Generator: Gravit.io --><svg xmlns="http://www.w3.org/2000/svg" xmlns:xlink="http://www.w3.org/1999/xlink" style="isolation:isolate" viewBox="0 0 51 51" width="51" height="51"><defs><clipPath id="_clipPath_NWFTVUzx59Bcnpwphha94rjfIEVZVXg8"><rect width="51" height="51"/></clipPath></defs><g clip-path="url(#_clipPath_NWFTVUzx59Bcnpwphha94rjfIEVZVXg8)"><g id="Group"><path d=" M 43.54 7.46 C 33.593 -2.486 17.408 -2.487 7.46 7.46 C -2.487 17.408 -2.486 33.592 7.46 43.54 C 17.407 53.487 33.592 53.487 43.54 43.54 C 53.486 33.592 53.486 17.407 43.54 7.46 Z  M 35.56 35.56 C 34.794 36.327 33.552 36.327 32.786 35.56 L 25.5 28.275 L 17.868 35.907 C 17.102 36.673 15.859 36.673 15.093 35.907 C 14.327 35.141 14.327 33.898 15.093 33.132 L 22.725 25.5 L 15.44 18.214 C 14.673 17.448 14.673 16.205 15.44 15.44 C 16.206 14.673 17.448 14.673 18.214 15.44 L 25.5 22.725 L 32.438 15.787 C 33.205 15.021 34.447 15.021 35.213 15.787 C 35.979 16.553 35.979 17.795 35.213 18.562 L 28.275 25.5 L 35.56 32.786 C 36.327 33.552 36.327 34.794 35.56 35.56 Z " fill="rgb(254,94,87)"/></g></g></svg>