<?xml version="1.0" standalone="no"?><!-- Generator: Gravit.io --><svg xmlns="http://www.w3.org/2000/svg" xmlns:xlink="http://www.w3.org/1999/xlink" style="isolation:isolate" viewBox="0 0 459 459" width="459" height="459"><defs><clipPath id="_clipPath_N5Q3NTmY6dXQk2RucRp2K11quEbc5WDG"><rect width="459" height="459"/></clipPath></defs><g clip-path="url(#_clipPath_N5Q3NTmY6dXQk2RucRp2K11quEbc5WDG)"><g id="Group"><g id="closed-caption"><path d=" M 408 25.5 L 51 25.5 C 22.95 25.5 0 48.45 0 76.5 L 0 382.5 C 0 410.55 22.95 433.5 51 433.5 L 408 433.5 C 436.05 433.5 459 410.55 459 382.5 L 459 76.5 C 459 48.45 436.05 25.5 408 25.5 Z  M 204 204 L 165.75 204 L 165.75 191.25 L 114.75 191.25 L 114.75 267.75 L 165.75 267.75 L 165.75 255 L 204 255 L 204 280.5 C 204 295.8 193.8 306 178.5 306 L 102 306 C 86.7 306 76.5 295.8 76.5 280.5 L 76.5 178.5 C 76.5 163.2 86.7 153 102 153 L 178.5 153 C 193.8 153 204 163.2 204 178.5 L 204 204 L 204 204 Z  M 382.5 204 L 344.25 204 L 344.25 191.25 L 293.25 191.25 L 293.25 267.75 L 344.25 267.75 L 344.25 255 L 382.5 255 L 382.5 280.5 C 382.5 295.8 372.3 306 357 306 L 280.5 306 C 265.2 306 255 295.8 255 280.5 L 255 178.5 C 255 163.2 265.2 153 280.5 153 L 357 153 C 372.3 153 382.5 163.2 382.5 178.5 L 382.5 204 L 382.5 204 Z " fill="rgb(255,255,255)"/></g></g></g></svg>