<?xml version="1.0" standalone="no"?><!-- Generator: Gravit.io --><svg xmlns="http://www.w3.org/2000/svg" xmlns:xlink="http://www.w3.org/1999/xlink" style="isolation:isolate" viewBox="0 0 298 298" width="298" height="298"><defs><clipPath id="_clipPath_b7SqJ8vTTbQIxFhKcG59W9mr6LzNr61B"><rect width="298" height="298"/></clipPath></defs><g clip-path="url(#_clipPath_b7SqJ8vTTbQIxFhKcG59W9mr6LzNr61B)"><g id="Group"><g id="Group"><g id="Group"><path d=" M 42.572 191.571 L 0 191.571 L 0 298 L 106.429 298 L 106.429 255.428 L 42.572 255.428 L 42.572 191.571 Z " fill="rgb(255,255,255)"/><path d=" M 0 106.429 L 42.572 106.429 L 42.572 42.572 L 106.429 42.572 L 106.429 0 L 0 0 L 0 106.429 Z " fill="rgb(255,255,255)"/><path d=" M 191.571 0 L 191.571 42.572 L 255.428 42.572 L 255.428 106.429 L 298 106.429 L 298 0 L 191.571 0 Z " fill="rgb(255,255,255)"/><path d=" M 255.428 255.428 L 191.571 255.428 L 191.571 298 L 298 298 L 298 191.571 L 255.428 191.571 L 255.428 255.428 Z " fill="rgb(255,255,255)"/></g></g></g></g></svg>