<?xml version="1.0" standalone="no"?><!-- Generator: Gravit.io --><svg xmlns="http://www.w3.org/2000/svg" xmlns:xlink="http://www.w3.org/1999/xlink" style="isolation:isolate" viewBox="0 0 357 357" width="357" height="357"><defs><clipPath id="_clipPath_etJO1F0xzTuGLFwLqi4PUgJOmziU8xGm"><rect width="357" height="357"/></clipPath></defs><g clip-path="url(#_clipPath_etJO1F0xzTuGLFwLqi4PUgJOmziU8xGm)"><g id="Group"><g id="fullscreen-exit"><path d=" M 0 280.5 L 76.5 280.5 L 76.5 357 L 127.5 357 L 127.5 229.5 L 0 229.5 L 0 280.5 L 0 280.5 Z  M 76.5 76.5 L 0 76.5 L 0 127.5 L 127.5 127.5 L 127.5 0 L 76.5 0 L 76.5 76.5 L 76.5 76.5 Z  M 229.5 357 L 280.5 357 L 280.5 280.5 L 357 280.5 L 357 229.5 L 229.5 229.5 L 229.5 357 L 229.5 357 Z  M 280.5 76.5 L 280.5 0 L 229.5 0 L 229.5 127.5 L 357 127.5 L 357 76.5 L 280.5 76.5 L 280.5 76.5 Z " fill="rgb(255,255,255)"/></g></g></g></svg>