<?xml version="1.0" standalone="no"?><!-- Generator: Gravit.io --><svg xmlns="http://www.w3.org/2000/svg" xmlns:xlink="http://www.w3.org/1999/xlink" style="isolation:isolate" viewBox="0 22 150 38" width="150" height="38"><g id="Group"><clipPath id="_clipPath_wsqKdMPPaF6Bl3kB6o6pV39Xqz1A9aVs"><rect x="0" y="22" width="150" height="38" transform="matrix(1,0,0,1,0,0)" fill="rgb(255,255,255)"/></clipPath><g clip-path="url(#_clipPath_wsqKdMPPaF6Bl3kB6o6pV39Xqz1A9aVs)"><g id="Group"><g id="Group"><g id="Group"><g id="Group"><path d=" M 10.565 31.17 L 14.306 38.233 L 14.912 38.233 L 18.653 31.786 L 22.444 23.965 L 28.611 24.819 L 23.961 32.734 L 17.389 44.774 L 17.945 56.956 L 10.868 56.956 L 11.374 45.58 L 5.004 33.445 L 0.152 25.15 L 7.279 23.965 L 10.565 31.17 Z  M 60.508 56.15 L 53.229 57.193 L 50.752 47.95 L 38.671 47.95 L 35.992 56.956 L 29.521 56.482 L 33.97 44.964 L 40.743 24.582 L 49.792 23.965 L 56.313 44.253 L 60.508 56.15 Z  M 49.236 42.925 L 45.242 30.127 L 44.585 30.127 L 40.238 42.925 L 49.236 42.925 Z  M 85.884 24.866 L 92.052 24.155 L 91.394 44.632 L 91.95 55.913 L 85.986 57.098 L 70.922 34.251 L 70.922 44.632 L 71.629 56.956 L 65.311 56.956 L 65.917 45.438 L 65.311 24.392 L 71.377 24.108 L 86.39 47.286 L 85.884 24.866 Z  M 114.294 23.776 L 114.294 23.776 L 114.294 23.776 Q 120.258 23.776 124.126 28.042 L 124.126 28.042 L 124.126 28.042 Q 127.993 32.308 127.993 38.896 L 127.993 38.896 L 127.993 38.896 Q 127.993 46.575 122.938 52.168 L 122.938 52.168 L 129.61 59.61 L 124.606 63.07 L 118.793 55.486 L 118.793 55.486 Q 115.254 57.477 111.311 57.477 L 111.311 57.477 L 111.311 57.477 Q 105.498 57.477 101.555 53.093 L 101.555 53.093 L 101.555 53.093 Q 97.612 48.708 97.612 42.262 L 97.612 42.262 L 97.612 42.262 Q 97.612 34.204 102.313 28.99 L 102.313 28.99 L 102.313 28.99 Q 107.014 23.776 114.294 23.776 Z  M 121.118 41.551 L 121.118 41.551 L 121.118 41.551 Q 121.118 29.559 112.727 29.559 L 112.727 29.559 L 112.727 29.559 Q 108.885 29.559 106.686 32.237 L 106.686 32.237 L 106.686 32.237 Q 104.487 34.915 104.487 40.247 L 104.487 40.247 L 104.487 40.247 Q 104.487 45.58 106.837 49.016 L 106.837 49.016 L 106.837 49.016 Q 109.188 52.453 113.283 52.453 L 113.283 52.453 L 113.283 52.453 Q 114.799 52.453 116.113 51.884 L 116.113 51.884 L 110.098 43.968 L 113.586 41.693 L 119.652 48.471 L 119.652 48.471 Q 121.118 45.58 121.118 41.551 Z  M 134.514 25.198 L 141.692 24.013 L 140.984 44.632 L 141.591 56.956 L 134.514 56.956 L 135.12 45.438 L 134.514 25.198 Z " fill-rule="evenodd" fill="rgb(229,9,20)"/></g></g></g></g></g></g></svg>