<?xml version="1.0" standalone="no"?><!-- Generator: Gravit.io --><svg xmlns="http://www.w3.org/2000/svg" xmlns:xlink="http://www.w3.org/1999/xlink" style="isolation:isolate" viewBox="0 0 508 508" width="508" height="508"><defs><clipPath id="_clipPath_OOcZzCmgaYd2BIX4mGgbXYC5y3vb6Y0Z"><rect width="508" height="508"/></clipPath></defs><g clip-path="url(#_clipPath_OOcZzCmgaYd2BIX4mGgbXYC5y3vb6Y0Z)"><g id="Group"><g id="Group"><g id="Group"><path d=" M 263.266 0.116 C 257.488 -0.424 250.725 0.973 242.757 5.799 C 242.757 5.799 110.361 121.304 104.583 126.987 L 31.749 126.987 C 14.224 127.018 0 141.242 0 158.768 L 0 353.297 C 0 370.886 14.224 385.046 31.749 385.046 L 104.614 385.046 C 110.392 390.793 242.788 502.201 242.788 502.201 C 250.756 506.995 257.519 508.424 263.297 507.884 C 275.045 506.773 283.3 496.931 285.808 486.548 C 285.903 485.532 285.903 22.498 285.744 21.482 C 283.269 11.069 274.982 1.227 263.266 0.116 Z " fill="rgb(255,255,255)"/><path d=" M 447.509 254.016 L 502.309 199.216 C 509.897 191.66 509.897 179.373 502.309 171.816 C 494.753 164.26 482.466 164.26 474.909 171.816 L 420.109 226.647 L 365.278 171.816 C 357.754 164.26 345.435 164.26 337.91 171.816 C 330.354 179.373 330.354 191.66 337.91 199.216 L 392.71 254.016 L 337.91 308.847 C 330.354 316.371 330.354 328.69 337.91 336.215 C 345.434 343.771 357.753 343.771 365.277 336.215 L 420.108 281.415 L 474.908 336.215 C 482.465 343.771 494.752 343.771 502.308 336.215 C 509.864 328.69 509.864 316.371 502.308 308.847 L 447.509 254.016 Z " fill="rgb(255,255,255)"/></g></g></g></g></svg>