<?xml version="1.0" standalone="no"?><!-- Generator: Gravit.io --><svg xmlns="http://www.w3.org/2000/svg" xmlns:xlink="http://www.w3.org/1999/xlink" style="isolation:isolate" viewBox="0 0 27 27" width="27" height="27"><defs><clipPath id="_clipPath_LOlNMjsRcSWudQF72llFL7ViwKAdOqVd"><rect width="27" height="27"/></clipPath></defs><g clip-path="url(#_clipPath_LOlNMjsRcSWudQF72llFL7ViwKAdOqVd)"><g id="Group"><g id="c74_volume"><path d=" M 4.517 8.499 L 0 8.499 L 0 18.562 L 4.517 18.562 L 13.056 24.896 C 13.056 24.896 14.626 26.207 14.626 24.852 C 14.626 23.493 14.626 3.249 14.626 2.013 C 14.626 0.949 13.244 1.988 13.244 1.988 L 4.517 8.499 Z " fill="rgb(255,255,255)"/><path d=" M 19.488 6.535 C 19.039 6.087 18.313 6.087 17.864 6.535 C 17.415 6.985 17.415 7.715 17.864 8.158 C 19.342 9.64 20.075 11.563 20.078 13.5 C 20.074 15.442 19.341 17.377 17.864 18.853 C 17.415 19.3 17.415 20.033 17.864 20.482 C 18.088 20.706 18.381 20.817 18.678 20.817 C 18.971 20.817 19.264 20.707 19.488 20.482 C 21.414 18.554 22.377 16.023 22.375 13.5 C 22.377 10.981 21.411 8.457 19.488 6.535 Z " fill="rgb(255,255,255)"/><path d=" M 22.607 2.917 C 22.152 2.466 21.427 2.466 20.974 2.917 C 20.529 3.368 20.529 4.093 20.974 4.544 C 23.457 7.026 24.697 10.262 24.699 13.512 C 24.697 16.777 23.462 20.033 20.974 22.523 C 20.527 22.972 20.529 23.699 20.974 24.15 C 21.2 24.373 21.497 24.485 21.79 24.485 C 22.086 24.485 22.382 24.373 22.607 24.15 C 25.535 21.21 27 17.357 27 13.512 C 27 9.68 25.525 5.841 22.607 2.917 Z " fill="rgb(255,255,255)"/></g></g></g></svg>